<svg width="160" height="51" viewBox="0 0 160 51" fill="none" xmlns="http://www.w3.org/2000/svg">
<path d="M83 1.375L87.5 5.875L80 16.875L72.5 5.875L77 1.375L76 7.875L80 13.375L84 7.875L83 1.375Z" fill="white"/>
<path d="M79.5 30.125V24.625L70 16.375L79.5 30.125Z" fill="white"/>
<path d="M80.5 30.125V24.625L90 16.375L80.5 30.125Z" fill="white"/>
<path d="M88 8.875L80 20.875L72 8.875L60 0.875L73 13.875L61.5 6.875L80 23.875L98.5 6.875L87 13.875L100 0.875L88 8.875Z" fill="white"/>
<path d="M144.407 50.125V40.1393H157.717C158.972 40.1393 160 41.1807 160 42.436V47.8426C160 49.0836 158.972 50.125 157.717 50.125H144.407ZM157.717 42.436H146.69V47.8426H157.717V42.436Z" fill="white"/>
<path d="M135.217 47.8426V50.125H119.625V40.1393H135.217V42.436H121.907V44.0052H135.217V46.2876H121.907V47.8426H135.217Z" fill="white"/>
<path d="M103.813 42.436V50.125H101.53V42.436H94.8398V40.1393H110.432V42.436H103.813Z" fill="white"/>
<path d="M85.8759 48.5416H76.0614L74.8631 50.125H72.01L79.5421 40.1393H82.3952L89.9273 50.125H87.0742L85.8759 48.5416ZM77.7732 46.2591H84.1498L80.9686 42.0366L77.7732 46.2591Z" fill="white"/>
<path d="M51.8493 46.2876V50.125H49.5669V40.1393H65.1589V42.436H51.8493V44.0052H65.1589V46.2876H51.8493Z" fill="white"/>
<path d="M27.0659 42.7213V50.125H24.7834V40.1393H27.0659L38.093 47.3147V40.1393H40.3755V50.125H38.093L27.0659 42.7213Z" fill="white"/>
<path d="M13.3096 40.125H15.592V47.8425C15.592 49.0836 14.5649 50.125 13.3096 50.125H2.28245C1.04137 50.125 0 49.0836 0 47.8425V40.125H2.28245V47.8425H13.3096V40.125Z" fill="white"/>
</svg>
